<svg width="42" height="24" viewBox="0 0 42 24" fill="none" xmlns="http://www.w3.org/2000/svg">
<g id="formkit:arrowright">
<path id="Vector" d="M9.1875 13.3333H32.8125C33.5475 13.3333 34.125 12.7467 34.125 12C34.125 11.2533 33.5475 10.6667 32.8125 10.6667H9.1875C8.4525 10.6667 7.875 11.2533 7.875 12C7.875 12.7467 8.4525 13.3333 9.1875 13.3333Z" fill="#807E8B"/>
<path id="Vector_2" d="M15.75 22.6667C15.9221 22.6688 16.0928 22.6343 16.251 22.5654C16.4093 22.4965 16.5516 22.3948 16.6687 22.2667C17.1937 21.7333 17.1937 20.9067 16.6687 20.3733L8.4 11.9733L16.6687 3.57333C17.1937 3.04 17.1937 2.21333 16.6687 1.68C16.1437 1.14667 15.33 1.14667 14.805 1.68L5.6175 11.0133C5.0925 11.5467 5.0925 12.3733 5.6175 12.9067L14.805 22.24C15.0675 22.5067 15.4087 22.64 15.7237 22.64L15.75 22.6667Z" fill="#807E8B"/>
</g>
</svg>
