<svg width="80" height="80" viewBox="0 0 80 80" fill="none" xmlns="http://www.w3.org/2000/svg">
<g id="girlfriend-1738933ee5a8e4353c59c395e568791490c8979c026bfbee814b0248076af8b8">
<g id="fi_9484251">
<path id="Vector" d="M61.993 10.5296C60.9437 10.1902 59.8328 9.97418 58.6911 9.85074C44.1255 8.36949 40.3914 22.2563 40.3914 22.2563C40.3914 22.2563 36.6575 8.36949 22.1226 9.85074C8.60632 11.2086 1.50865 28.243 10.3653 42.5617C12.8958 46.666 16.8458 51.0789 21.0734 55.1832C29.5598 63.4227 39.1262 70.2735 40.3914 70.2735C42.3047 70.2735 62.7645 54.9363 70.4176 42.5925C78.5336 29.4774 73.2875 14.0785 61.993 10.5296Z" fill="#FC4F4F"/>
<path id="Vector_2" opacity="0.15" d="M70.4165 42.5614C78.5324 29.477 73.2863 14.0781 61.9918 10.5293C61.9918 10.5293 73.2556 21.3919 66.7751 32.563C60.2946 43.7341 38.6313 57.6206 35.5762 58.1144C33.0457 58.5156 26.627 57.9294 21.0723 55.2138C29.5587 63.4531 39.1251 70.3039 40.3902 70.3039C42.3035 70.273 62.7634 54.9359 70.4165 42.5614Z" fill="black"/>
<path id="Vector_3" opacity="0.3" d="M19.4782 23.2183C22.2156 19.976 23.1045 16.2248 21.4638 14.8397C19.8232 13.4546 16.2742 14.9601 13.537 18.2023C10.7998 21.4446 9.91084 25.1957 11.5515 26.5809C13.1921 27.9658 16.7411 26.4604 19.4782 23.2183Z" fill="white"/>
</g>
</g>
</svg>
