<svg width="20" height="21" viewBox="0 0 20 21" fill="none" xmlns="http://www.w3.org/2000/svg">
<g clip-path="url(#clip0_374_1860)">
<path d="M10.0008 0.900391C7.52078 0.900391 5.52078 2.90039 5.52078 5.38039V6.98039H5.20078C3.92078 6.98039 2.80078 8.02039 2.80078 9.38039V12.9804C2.80078 16.9804 6.00078 20.1804 10.0008 20.1804C14.0008 20.1804 17.2008 16.9804 17.2008 12.9804V9.30039C17.2008 8.02039 16.1608 6.90039 14.8008 6.90039H14.4008V5.30039C14.4808 2.90039 12.4808 0.900391 10.0008 0.900391ZM10.8008 14.3404V15.8604C10.8008 16.3404 10.4008 16.6604 10.0008 16.6604C9.52078 16.6604 9.20078 16.3404 9.20078 15.8604V14.3404C8.40078 14.0204 7.84078 13.2204 7.84078 12.3404C7.84078 11.1404 8.80078 10.1804 10.0008 10.1804C11.2008 10.1804 12.1608 11.1404 12.1608 12.3404C12.1608 13.2204 11.6008 14.0204 10.8008 14.3404ZM12.8808 6.90039H7.12078V5.30039C7.12078 3.70039 8.40078 2.42039 10.0008 2.42039C11.6008 2.42039 12.8808 3.70039 12.8808 5.30039V6.90039Z" fill="#393742"/>
</g>
<defs>
<clipPath id="clip0_374_1860">
<rect width="20" height="20" fill="white" transform="translate(0 0.5)"/>
</clipPath>
</defs>
</svg>
