<svg width="77" height="77" viewBox="0 0 77 77" fill="none" xmlns="http://www.w3.org/2000/svg">
<g id="sex_friend-8415470f12b5fa0e07df036bc19dc7a6c35b7ec9263312b24915a366c8f18496" clip-path="url(#clip0_62_397)">
<g id="Clip path group">
<mask id="mask0_62_397" style="mask-type:luminance" maskUnits="userSpaceOnUse" x="0" y="0" width="77" height="77">
<g id="clip0_8192_12459">
<path id="Vector" d="M76.8916 0.5H0.891602V76.5H76.8916V0.5Z" fill="white"/>
</g>
</mask>
<g mask="url(#mask0_62_397)">
<g id="fi_3673582">
<g id="Group">
<path id="Vector_2" d="M62.1966 1.53751C62.1882 1.52905 62.1805 1.52015 62.1721 1.51168C61.2742 0.613785 60.0051 0.313792 58.8588 0.610817C58.5279 0.696614 58.1976 0.78523 57.8615 0.848316L45.4977 3.1672C43.6556 3.51277 42.3552 5.23955 42.6353 7.09278C42.9292 9.03836 44.7732 10.3364 46.6907 9.97693L49.3104 9.48559L43.1175 15.6784C39.7716 13.3194 35.7888 12.0485 31.6108 12.0485C26.2619 12.0485 21.2333 14.1316 17.4512 17.9137C13.669 21.6959 11.5859 26.7246 11.5859 32.0734C11.5859 37.4221 13.669 42.4507 17.4512 46.233C21.2333 50.0151 26.2619 52.0981 31.6108 52.0981C36.9596 52.0981 41.9882 50.0151 45.7703 46.233C49.5526 42.4507 51.6355 37.4221 51.6355 32.0734C51.6355 27.8953 50.3645 23.9126 48.0055 20.5667L54.818 13.7544L54.1997 17.8692C53.9163 19.7551 55.1701 21.5713 57.0529 21.8753C57.2405 21.9057 57.4262 21.9203 57.6099 21.9203C59.2919 21.9203 60.7663 20.6905 61.0237 18.977L63.1957 4.51947C63.3609 3.42193 62.9881 2.31325 62.1966 1.53751ZM40.8821 41.3446C38.4056 43.8211 35.1129 45.185 31.6106 45.185C28.1083 45.185 24.8156 43.8211 22.3391 41.3445C19.8626 38.868 18.4987 35.5753 18.4987 32.0731C18.4987 28.5708 19.8627 25.2782 22.3391 22.8016C24.8156 20.3251 28.1083 18.9612 31.6106 18.9612C35.1129 18.9612 38.4056 20.3252 40.8821 22.8016C45.9944 27.914 45.9944 36.2322 40.8821 41.3446Z" fill="#8AC9FE"/>
<path id="Vector_2_2" d="M48.0056 20.5664L54.8176 13.7543C54.7812 13.5555 54.6711 12.2472 54.5803 11.1213C54.5266 10.4562 53.7185 10.1593 53.2466 10.6312L45.7631 18.2025C44.7702 19.2071 44.6208 20.7621 45.3822 21.9516C47.0927 24.6232 48.341 27.3443 48.338 30.6954C48.3331 35.9852 46.2191 41.0848 42.4809 44.8273C38.6975 48.6148 33.6658 50.7013 28.3134 50.7013C26.1965 50.7013 24.1331 50.3748 22.1748 49.7466C24.9635 51.2395 28.0855 52.0522 31.3315 52.0962C36.7291 52.1695 41.9529 50.0496 45.77 46.2325C49.5521 42.4503 51.6354 37.4221 51.6354 32.0736C51.6354 27.8945 50.3635 23.9124 48.0056 20.5664ZM62.1969 1.53758C62.1877 1.53001 62.1801 1.52081 62.1725 1.51161C61.3734 0.713903 60.2829 0.387638 59.2443 0.533997C59.7964 1.26757 60.0374 2.19784 59.8987 3.12216L57.7268 17.5786C57.495 19.1236 56.2733 20.275 54.8032 20.4869C55.3295 21.2144 56.1348 21.7376 57.0924 21.881C57.2662 21.907 57.4386 21.9206 57.6095 21.9206C59.2916 21.9206 60.7663 20.6897 61.0241 18.977L63.1958 4.51894C63.3605 3.4226 62.9884 2.31376 62.1969 1.53758Z" fill="#60B7FF"/>
<path id="Vector_3" d="M60.3413 30.7662C56.5592 26.9839 51.5305 24.9009 46.1815 24.9009C40.8327 24.9009 35.8041 26.9839 32.0219 30.7662C28.2397 34.5483 26.1566 39.577 26.1566 44.9258C26.1566 49.1039 27.4276 53.0866 29.7866 56.4325L26.2649 59.9542L23.8322 57.5214C22.4822 56.1716 20.2937 56.1717 18.9439 57.5214C17.5941 58.8712 17.5941 61.0598 18.9439 62.4096L21.3767 64.8424L15.6198 70.5992C14.2699 71.949 14.2699 74.1375 15.6198 75.4875C16.2948 76.1624 17.1791 76.4997 18.0639 76.4997C18.9484 76.4997 19.8331 76.1623 20.5079 75.4875L26.2648 69.7306L28.6974 72.1633C29.3724 72.8382 30.257 73.1756 31.1415 73.1756C32.0261 73.1756 32.9107 72.8381 33.5855 72.1633C34.9354 70.8136 34.9354 68.625 33.5855 67.2752L31.1529 64.8424L34.6774 61.3179C38.1149 63.733 42.1478 64.9413 46.1811 64.9413C51.309 64.9413 56.437 62.9894 60.3408 59.0857C68.1487 51.2778 68.1487 38.5738 60.3413 30.7662ZM55.4531 54.1973C50.3406 59.3096 42.0224 59.3094 36.91 54.1973C34.4335 51.7208 33.0696 48.4281 33.0696 44.9258C33.0696 41.4235 34.4337 38.1308 36.91 35.6544C39.3867 33.1778 42.6792 31.8141 46.1815 31.8141C49.6839 31.8141 52.9766 33.1778 55.4531 35.6544C60.5653 40.7667 60.5653 49.0851 55.4531 54.1973Z" fill="#FD8087"/>
<path id="Vector_4" d="M60.343 30.7664C59.9678 30.3913 59.5791 30.0314 59.1794 29.6911C65.9023 37.55 65.5468 49.4215 58.1119 56.855C54.2092 60.7591 49.5998 62.2136 44.4725 62.2136C40.7475 62.2136 37.4445 60.708 34.2538 58.5752C33.7902 58.2652 33.1729 58.3235 32.7805 58.7198L29.7373 61.7918C29.2878 62.2456 29.2894 62.9772 29.7411 63.4288L31.1558 64.8433L34.6803 61.3188C38.1179 63.7331 42.1502 64.941 46.1826 64.941C51.3117 64.941 56.4392 62.9904 60.3433 59.086C68.1501 51.2777 68.1501 38.5751 60.343 30.7664ZM33.588 67.276L31.3569 65.0447C32.7067 66.3945 32.7067 68.5832 31.3569 69.9328C30.6829 70.6084 29.7981 70.9455 28.9137 70.9455C28.0291 70.9455 27.1445 70.6084 26.4689 69.9328L28.7001 72.164C29.3741 72.8381 30.2587 73.1767 31.1433 73.1767C32.0278 73.1767 32.9124 72.8381 33.588 72.164C34.9376 70.8143 34.9376 68.6258 33.588 67.276ZM24.8567 68.3213C24.4037 67.868 23.6687 67.8678 23.2156 68.321L18.2789 73.2575C17.6049 73.9317 16.7204 74.2702 15.8357 74.2702C15.4789 74.2702 15.1204 74.2138 14.7773 74.1025C14.9375 74.6089 15.2212 75.0862 15.6222 75.4873C16.2963 76.1629 17.1809 76.4998 18.0655 76.4998C18.9503 76.4998 19.8345 76.1628 20.5103 75.4873L26.266 69.7314L24.8567 68.3213Z" fill="#FE646F"/>
</g>
</g>
</g>
</g>
</g>
<defs>
<clipPath id="clip0_62_397">
<rect width="76" height="76" fill="white" transform="translate(0.891602 0.5)"/>
</clipPath>
</defs>
</svg>
