<svg width="69" height="78" viewBox="0 0 69 78" fill="none" xmlns="http://www.w3.org/2000/svg">
<g id="Icon step sister">
<g id="Group_2">
<g id="Group_3">
<path id="Vector" d="M29.2436 21.8538L23.8025 1.69058C23.6129 0.988144 22.9756 0.500015 22.2481 0.500015H19.0592C17.9993 0.500015 17.2286 1.50634 17.5048 2.52947L22.7195 21.8538H29.2436Z" fill="#FFC344"/>
</g>
<g id="Group_4">
<path id="Vector_2" d="M29.2428 21.8538L23.8017 1.6906C23.6121 0.988159 22.9749 0.500031 22.2473 0.500031H19.0585C19.0515 0.500031 19.0451 0.50111 19.0381 0.501264C19.7536 0.514061 20.3767 0.997409 20.5638 1.6906L26.0049 21.8538H29.2428Z" fill="#F6AB31"/>
</g>
</g>
<g id="Group_5">
<g id="Group_6">
<path id="Vector_3" d="M47.0602 21.8538L52.275 2.52947C52.5512 1.50634 51.7803 0.500015 50.7206 0.500015H47.5317C46.804 0.500015 46.1669 0.988144 45.9773 1.69058L40.5361 21.8538H47.0602Z" fill="#FFC344"/>
</g>
</g>
<g id="Group_7">
<path id="Vector_4" d="M48.8349 2.52947L43.6201 21.8538H47.0634L52.2781 2.52947C52.5541 1.50634 51.7834 0.500015 50.7237 0.500015H47.5348C47.4867 0.500015 47.4392 0.502482 47.3921 0.506645C48.3932 0.574792 49.1012 1.54288 48.8349 2.52947Z" fill="#F6AB31"/>
</g>
<g id="Group_8">
<g id="Group_9">
<path id="Vector_5" d="M50.0017 17.51C44.8083 17.51 40.3487 19.273 36.5445 22.4422C35.5844 23.2419 34.1972 23.2419 33.2371 22.4422C29.4331 19.273 24.9734 17.51 19.7802 17.51C9.34829 17.51 0.891602 25.9668 0.891602 36.3984C0.891602 41.6821 3.06104 46.4592 6.55796 49.8872C9.20814 52.4852 24.8779 68.6996 31.7095 75.7757C33.4481 77.5767 36.3336 77.5767 38.0724 75.7757C44.904 68.6997 60.5738 52.4852 63.2241 49.8872C66.7208 46.459 68.8903 41.6821 68.8903 36.3984C68.8902 25.9668 60.4336 17.51 50.0017 17.51Z" fill="#FFE177"/>
</g>
<g id="Group_10">
<g id="Group_11">
<path id="Vector_6" d="M50.003 17.51C49.1833 17.51 48.3816 17.5542 47.5981 17.6405C56.9832 18.74 64.2658 26.7182 64.2658 36.3984C64.2658 41.6823 62.0961 46.4592 58.5994 49.8873C55.9493 52.4852 40.2793 68.6997 33.4477 75.7757C33.1824 76.0506 32.8898 76.283 32.5791 76.474C34.3038 77.5341 36.6001 77.3019 38.0734 75.7757C44.9051 68.6997 60.5749 52.4852 63.2251 49.8873C66.722 46.4592 68.8915 41.6821 68.8915 36.3984C68.8913 25.9668 60.4348 17.51 50.003 17.51Z" fill="#FFD15B"/>
</g>
</g>
</g>
<g id="Group_12">
<g id="Group_13">
<path id="Vector_7" d="M40.4797 29.7923C39.5214 29.7923 38.6988 30.1177 37.9967 30.7023C37.8197 30.8499 37.5636 30.8499 37.3866 30.7023C36.6846 30.1175 35.8618 29.7923 34.9039 29.7923C32.9793 29.7923 31.4189 31.3526 31.4189 33.2772C31.4189 34.2521 31.8192 35.1333 32.4644 35.7658C32.9532 36.2452 35.8444 39.2367 37.1048 40.5422C37.4257 40.8746 37.9579 40.8746 38.2788 40.5422C39.5391 39.2367 42.4303 36.2452 42.9192 35.7658C43.5643 35.1333 43.9646 34.252 43.9646 33.2772C43.9645 31.3526 42.4043 29.7923 40.4797 29.7923Z" fill="#FFC344"/>
</g>
<g id="Group_14">
<g id="Group_15">
<path id="Vector_8" d="M40.4795 29.7923C39.5699 29.7923 38.7835 30.0885 38.1057 30.6186C38.8597 31.2578 39.3387 32.2115 39.3387 33.2773C39.3387 34.2522 38.9385 35.1334 38.2933 35.7659C37.9734 36.0794 36.6257 37.4679 35.3789 38.7564C36.0381 39.4375 36.6689 40.0906 37.1048 40.5422C37.4256 40.8746 37.9579 40.8746 38.2787 40.5422C39.5391 39.2367 42.4301 36.2453 42.9191 35.766C43.5642 35.1335 43.9646 34.2522 43.9646 33.2774C43.9644 31.3526 42.4041 29.7923 40.4795 29.7923Z" fill="#F6AB31"/>
</g>
</g>
</g>
<path id="Vector_9" d="M26.9767 60.2944C25.181 60.2944 23.4276 59.5429 22.2868 58.2841C21.858 57.8109 21.8939 57.0796 22.3671 56.6507C22.8404 56.2219 23.5716 56.2576 24.0005 56.731C24.7104 57.5142 25.8228 57.9817 26.9768 57.9817C28.1543 57.9817 28.9878 57.2543 29.1133 56.5509C29.2365 55.8606 28.6602 55.2262 27.5316 54.8099C25.8324 54.1831 24.3243 53.5119 24.2609 53.4836C24.2052 53.4587 24.1515 53.4295 24.1004 53.3963C23.0127 52.687 22.4523 51.4431 22.638 50.1495C22.8367 48.7655 23.8522 47.6372 25.2883 47.2044C28.1813 46.3323 30.5668 48.3001 30.6669 48.3843C31.1558 48.7953 31.2189 49.5246 30.808 50.0134C30.3984 50.5006 29.6725 50.5651 29.1838 50.1586C29.1503 50.1313 27.6259 48.9154 25.9555 49.4184C25.129 49.6674 24.9611 50.2425 24.9272 50.4779C24.8737 50.8505 25.0128 51.1949 25.3006 51.4144C25.658 51.5711 26.9459 52.1286 28.332 52.6399C30.9807 53.6167 31.6483 55.5105 31.39 56.957C31.0502 58.8598 29.153 60.2944 26.9767 60.2944Z" fill="#FEB237"/>
<path id="Vector_10" d="M43.3271 60.2945C41.5312 60.2945 39.7779 59.5429 38.6372 58.2841C38.2086 57.811 38.2445 57.0798 38.7177 56.6509C39.1909 56.2219 39.922 56.258 40.351 56.7312C41.0607 57.5142 42.1731 57.9816 43.3271 57.9816C44.5048 57.9816 45.3382 57.2543 45.4637 56.5509C45.587 55.8606 45.0105 55.2262 43.882 54.8099C42.1828 54.1832 40.6746 53.5119 40.6112 53.4835C40.5555 53.4586 40.5018 53.4293 40.4506 53.3961C39.363 52.6869 38.8028 51.4428 38.9884 50.1494C39.1872 48.7653 40.2027 47.6369 41.6388 47.2041C44.5319 46.3321 46.9171 48.2998 47.0173 48.3841C47.5063 48.795 47.5693 49.5244 47.1584 50.0132C46.749 50.5005 46.0231 50.5649 45.5343 50.1585C45.5008 50.1312 43.9764 48.9152 42.3059 49.4183C41.4795 49.6673 41.3115 50.2422 41.2777 50.4778C41.2242 50.8504 41.3631 51.1947 41.6511 51.4141C42.0085 51.571 43.2965 52.1284 44.6824 52.6398C47.331 53.6166 47.9988 55.5104 47.7405 56.9569C47.4006 58.8599 45.5033 60.2945 43.3271 60.2945Z" fill="#FEB237"/>
<path id="Vector_11" d="M15.0911 50.9157C14.7905 50.9157 14.4904 50.7993 14.2637 50.567C12.1179 48.3691 10.7055 46.9367 10.0656 46.3091C7.3809 43.6772 5.90234 40.1576 5.90234 36.3986C5.90234 33.9499 6.5519 31.5408 7.78068 29.4317C8.10215 28.8798 8.81015 28.6933 9.36194 29.0147C9.91374 29.3362 10.1005 30.044 9.77899 30.5959C8.75587 32.3518 8.21501 34.3583 8.21501 36.3985C8.21501 39.531 9.4472 42.4641 11.6846 44.6575C12.3367 45.2969 13.761 46.7413 15.9186 48.9513C16.3647 49.4082 16.356 50.1403 15.8989 50.5865C15.6738 50.8063 15.3823 50.9157 15.0911 50.9157Z" fill="#FFF0AD"/>
<path id="Vector_12" d="M12.4191 27.1849C12.0576 27.1849 11.7017 27.016 11.4762 26.6991C11.1058 26.1788 11.2272 25.457 11.7475 25.0866C14.105 23.408 16.8826 22.5209 19.7792 22.5209C20.4181 22.5209 20.9356 23.0386 20.9356 23.6771C20.9356 24.3159 20.4181 24.8336 19.7792 24.8336C17.3661 24.8336 15.0526 25.5725 13.0888 26.9707C12.8852 27.1153 12.6509 27.1849 12.4191 27.1849Z" fill="#FFF0AD"/>
<g id="Group_16">
<path id="Vector_13" d="M26.7422 41.9478C26.1035 41.9478 25.5859 41.4301 25.5859 40.7915V29.7924C25.5859 29.1539 26.1035 28.6361 26.7422 28.6361C27.3809 28.6361 27.8986 29.1539 27.8986 29.7924V40.7915C27.8986 41.4301 27.3809 41.9478 26.7422 41.9478Z" fill="#FEB237"/>
<path id="Vector_14" d="M34.8897 60.2944C34.2509 60.2944 33.7334 59.7767 33.7334 59.1381V48.139C33.7334 47.5003 34.2509 46.9826 34.8897 46.9826C35.5285 46.9826 36.0461 47.5003 36.0461 48.139V59.1381C36.0461 59.7767 35.5284 60.2944 34.8897 60.2944Z" fill="#FEB237"/>
</g>
</g>
</svg>
