<svg width="328" height="43" viewBox="0 0 328 43" fill="none" xmlns="http://www.w3.org/2000/svg">
<g clip-path="url(#clip0_0_1408)">
<path d="M21.5 22.5C21.5 21.6716 22.1716 21 23 21H305C305.828 21 306.5 21.6716 306.5 22.5C306.5 23.3284 305.828 24 305 24H23C22.1716 24 21.5 23.3284 21.5 22.5Z" fill="#24232B"/>
<path d="M21.5 22.5C21.5 21.6716 22.1716 21 23 21H296C296.828 21 297.5 21.6716 297.5 22.5C297.5 23.3284 296.828 24 296 24H23C22.1716 24 21.5 23.3284 21.5 22.5Z" fill="#F96C84"/>
<g clip-path="url(#clip1_0_1408)">
<path d="M11.5 22C11.5 16.4772 15.9772 12 21.5 12C27.0228 12 31.5 16.4772 31.5 22C31.5 27.5228 27.0228 32 21.5 32C15.9772 32 11.5 27.5228 11.5 22Z" fill="#19181E"/>
<path d="M11.5 22C11.5 16.4772 15.9772 12 21.5 12C27.0228 12 31.5 16.4772 31.5 22C31.5 27.5228 27.0228 32 21.5 32C15.9772 32 11.5 27.5228 11.5 22Z" stroke="#F96C84" stroke-width="2" stroke-linejoin="round"/>
<path d="M23.5057 16.3636V28H21.0455V18.6989H20.9773L18.3125 20.3693V18.1875L21.1932 16.3636H23.5057Z" fill="white"/>
</g>
<path d="M105.5 22C105.5 16.4772 109.977 12 115.5 12C121.023 12 125.5 16.4772 125.5 22C125.5 27.5228 121.023 32 115.5 32C109.977 32 105.5 27.5228 105.5 22Z" fill="#19181E"/>
<path d="M105.5 22C105.5 16.4772 109.977 12 115.5 12C121.023 12 125.5 16.4772 125.5 22C125.5 27.5228 121.023 32 115.5 32C109.977 32 105.5 27.5228 105.5 22Z" stroke="#F96C84" stroke-width="2" stroke-linejoin="round"/>
<path d="M111.404 28V26.2273L115.546 22.392C115.898 22.0511 116.194 21.7443 116.433 21.4716C116.675 21.1989 116.859 20.9318 116.984 20.6705C117.109 20.4053 117.171 20.1193 117.171 19.8125C117.171 19.4716 117.094 19.178 116.938 18.9318C116.783 18.6818 116.571 18.4905 116.302 18.358C116.033 18.2216 115.728 18.1534 115.387 18.1534C115.031 18.1534 114.72 18.2254 114.455 18.3693C114.19 18.5133 113.986 18.7197 113.842 18.9886C113.698 19.2576 113.626 19.5777 113.626 19.9489H111.29C111.29 19.1875 111.463 18.5265 111.808 17.9659C112.152 17.4053 112.635 16.9716 113.256 16.6648C113.878 16.358 114.594 16.2045 115.404 16.2045C116.237 16.2045 116.963 16.3523 117.58 16.6477C118.201 16.9394 118.684 17.3447 119.029 17.8636C119.374 18.3826 119.546 18.9773 119.546 19.6477C119.546 20.0871 119.459 20.5208 119.285 20.9489C119.114 21.3769 118.809 21.8523 118.37 22.375C117.931 22.8939 117.311 23.517 116.512 24.2443L114.813 25.9091V25.9886H119.7V28H111.404Z" fill="white"/>
<path d="M201.5 22C201.5 16.4772 205.977 12 211.5 12C217.023 12 221.5 16.4772 221.5 22C221.5 27.5228 217.023 32 211.5 32C205.977 32 201.5 27.5228 201.5 22Z" fill="#19181E"/>
<path d="M201.5 22C201.5 16.4772 205.977 12 211.5 12C217.023 12 221.5 16.4772 221.5 22C221.5 27.5228 217.023 32 211.5 32C205.977 32 201.5 27.5228 201.5 22Z" stroke="#F96C84" stroke-width="2" stroke-linejoin="round"/>
<path d="M211.244 28.1591C210.396 28.1591 209.64 28.0133 208.977 27.7216C208.318 27.4261 207.797 27.0208 207.415 26.5057C207.036 25.9867 206.841 25.3883 206.83 24.7102H209.307C209.322 24.9943 209.415 25.2443 209.585 25.4602C209.759 25.6723 209.991 25.8371 210.278 25.9545C210.566 26.072 210.89 26.1307 211.25 26.1307C211.625 26.1307 211.956 26.0644 212.244 25.9318C212.532 25.7992 212.758 25.6155 212.92 25.3807C213.083 25.1458 213.165 24.875 213.165 24.5682C213.165 24.2576 213.078 23.983 212.903 23.7443C212.733 23.5019 212.487 23.3125 212.165 23.1761C211.847 23.0398 211.468 22.9716 211.028 22.9716H209.943V21.1648H211.028C211.4 21.1648 211.727 21.1004 212.011 20.9716C212.299 20.8428 212.523 20.6648 212.682 20.4375C212.841 20.2064 212.92 19.9375 212.92 19.6307C212.92 19.339 212.85 19.0833 212.71 18.8636C212.574 18.6402 212.381 18.4659 212.131 18.3409C211.884 18.2159 211.597 18.1534 211.267 18.1534C210.934 18.1534 210.629 18.214 210.352 18.3352C210.076 18.4527 209.854 18.6212 209.688 18.8409C209.521 19.0606 209.432 19.3182 209.42 19.6136H207.062C207.074 18.9432 207.265 18.3523 207.636 17.8409C208.008 17.3295 208.508 16.9299 209.136 16.642C209.769 16.3504 210.483 16.2045 211.278 16.2045C212.081 16.2045 212.784 16.3504 213.386 16.642C213.989 16.9337 214.456 17.3277 214.79 17.8239C215.127 18.3163 215.294 18.8693 215.29 19.483C215.294 20.1345 215.091 20.678 214.682 21.1136C214.277 21.5492 213.748 21.8258 213.097 21.9432V22.0341C213.953 22.1439 214.604 22.4413 215.051 22.9261C215.502 23.4072 215.725 24.0095 215.722 24.733C215.725 25.3958 215.534 25.9848 215.148 26.5C214.765 27.0152 214.237 27.4205 213.562 27.7159C212.888 28.0114 212.116 28.1591 211.244 28.1591Z" fill="white"/>
<path d="M296.5 22C296.5 16.4772 300.977 12 306.5 12C312.023 12 316.5 16.4772 316.5 22C316.5 27.5228 312.023 32 306.5 32C300.977 32 296.5 27.5228 296.5 22Z" fill="#19181E"/>
<path d="M296.5 22C296.5 16.4772 300.977 12 306.5 12C312.023 12 316.5 16.4772 316.5 22C316.5 27.5228 312.023 32 306.5 32C300.977 32 296.5 27.5228 296.5 22Z" stroke="#F96C84" stroke-width="2" stroke-linejoin="round"/>
<path d="M301.845 25.9545V24.017L306.703 16.3636H308.374V19.0455H307.385L304.322 23.892V23.983H311.226V25.9545H301.845ZM307.43 28V25.3636L307.476 24.5057V16.3636H309.783V28H307.43Z" fill="white"/>
</g>
<defs>
<clipPath id="clip0_0_1408">
<rect width="327" height="43" fill="white" transform="translate(0.5)"/>
</clipPath>
<clipPath id="clip1_0_1408">
<rect width="22" height="22" fill="white" transform="translate(10.5 11)"/>
</clipPath>
</defs>
</svg>
