<svg width="82" height="82" viewBox="0 0 82 82" fill="none" xmlns="http://www.w3.org/2000/svg">
<g id="step_mom-f9e41e118a6dafa181c9a717875a91b7cd3ca4ce3bb337c7d57cf70f596c8ab8">
<g id="fi_9770596">
<path id="Vector" d="M63.9197 32.1406C62.0593 17.0923 50.251 10.625 50.251 10.625C50.251 10.625 54.0479 15.6875 50.251 20.75C50.251 14.4219 40.126 10.625 45.1885 1.76562C37.4302 3.70203 30.001 11.8906 30.001 22.0156C26.2041 20.75 24.9385 16.9531 24.9385 16.9531C24.9385 16.9531 20.0532 22.8256 18.8761 32.1406C14.4971 35.4945 11.6494 40.7595 11.6494 46.6953C11.6494 66.7934 38.1389 79.2472 39.2654 79.7661C39.9361 80.0825 40.6575 80.2344 41.3916 80.2344C42.1257 80.2344 42.8344 80.0825 43.5179 79.7661C44.6443 79.2472 71.1338 66.7934 71.1338 46.6953C71.1338 40.7722 68.2988 35.4945 63.9197 32.1406Z" fill="#FFD74B"/>
<path id="Vector_2" d="M63.9197 32.1406C62.7807 22.9775 57.9713 17.0038 54.3643 13.7258V17.2443C54.1491 18.8769 53.5289 20.5981 52.276 22.2687L47.7197 28.3437V20.75C47.7197 19.13 46.5174 17.4847 45.1125 15.5863C43.3407 13.1816 41.1258 10.1568 41.2271 6.24599C36.4557 9.3088 32.5196 15.0927 32.5196 22.0156V25.5214L29.191 24.4077C27.3179 23.7875 25.9257 22.7117 24.9005 21.598C23.5716 24.0027 21.9643 27.7489 21.3694 32.4444L21.2429 33.4948L20.4075 34.1403C16.4461 37.1778 14.1807 41.7467 14.1807 46.6827C14.1807 63.8319 33.5827 75.7794 40.6829 79.5762C41.5561 80.0445 42.5939 80.1711 43.4925 79.7661H43.5052C44.6316 79.2345 71.1211 66.7808 71.1211 46.6827C71.1211 40.7595 68.2861 35.4819 63.9071 32.128L63.9197 32.1406Z" fill="#FFC839"/>
<path id="Vector_3" d="M52.7822 33.4062C47.9475 33.4062 43.7204 35.9881 41.3916 39.8483C39.0629 35.9881 34.8357 33.4062 30.001 33.4062C22.6604 33.4062 16.7119 39.3547 16.7119 46.6953C16.7119 63.7812 41.3916 75.1719 41.3916 75.1719C41.3916 75.1719 66.0713 63.7812 66.0713 46.6953C66.0713 39.3547 60.1229 33.4062 52.7822 33.4062Z" fill="#F03C6E"/>
<path id="Vector_4" d="M18.6104 50.4922C18.6104 43.1516 24.5588 37.2031 31.8994 37.2031C36.7341 37.2031 40.9613 39.785 43.29 43.6452C45.6188 39.785 49.846 37.2031 54.6807 37.2031C59.1357 37.2031 63.0718 39.4053 65.4764 42.7719C63.8058 37.355 58.756 33.4062 52.7822 33.4062C47.9475 33.4062 43.7204 35.9881 41.3916 39.8483C39.0629 35.9881 34.8357 33.4062 30.001 33.4062C22.6604 33.4062 16.7119 39.3547 16.7119 46.6953C16.7119 50.5808 18.0029 54.1752 19.9772 57.4152C19.1166 55.2383 18.6104 52.9222 18.6104 50.4922Z" fill="#F55F91"/>
</g>
</g>
</svg>
