<svg width="328" height="44" viewBox="0 0 328 44" fill="none" xmlns="http://www.w3.org/2000/svg">
<g clip-path="url(#clip0_0_1643)">
<path d="M21.5 23C21.5 22.1716 22.1716 21.5 23 21.5H305C305.828 21.5 306.5 22.1716 306.5 23C306.5 23.8284 305.828 24.5 305 24.5H23C22.1716 24.5 21.5 23.8284 21.5 23Z" fill="#24232B"/>
<path d="M21.5 23C21.5 22.1716 22.1716 21.5 23 21.5H29C29.8284 21.5 30.5 22.1716 30.5 23C30.5 23.8284 29.8284 24.5 29 24.5H23C22.1716 24.5 21.5 23.8284 21.5 23Z" fill="#F96C84"/>
<path d="M11.5 22.5C11.5 16.9772 15.9772 12.5 21.5 12.5C27.0228 12.5 31.5 16.9772 31.5 22.5C31.5 28.0228 27.0228 32.5 21.5 32.5C15.9772 32.5 11.5 28.0228 11.5 22.5Z" fill="#19181E"/>
<path d="M11.5 22.5C11.5 16.9772 15.9772 12.5 21.5 12.5C27.0228 12.5 31.5 16.9772 31.5 22.5C31.5 28.0228 27.0228 32.5 21.5 32.5C15.9772 32.5 11.5 28.0228 11.5 22.5Z" stroke="#F96C84" stroke-width="2" stroke-linejoin="round"/>
<path d="M23.5916 16.8636V28.5H21.1314V19.1989H21.0632L18.3984 20.8693V18.6875L21.2791 16.8636H23.5916Z" fill="white"/>
<path d="M108.5 22.5C108.5 18.634 111.634 15.5 115.5 15.5C119.366 15.5 122.5 18.634 122.5 22.5C122.5 26.366 119.366 29.5 115.5 29.5C111.634 29.5 108.5 26.366 108.5 22.5Z" fill="#19181E"/>
<path d="M108.5 22.5C108.5 18.634 111.634 15.5 115.5 15.5C119.366 15.5 122.5 18.634 122.5 22.5C122.5 26.366 119.366 29.5 115.5 29.5C111.634 29.5 108.5 26.366 108.5 22.5Z" stroke="#24232B" stroke-width="4" stroke-linejoin="round"/>
<path d="M115.225 22.5V22.358L115.496 22.1335C115.514 22.1186 115.53 22.1046 115.543 22.0916C115.556 22.0784 115.565 22.0647 115.572 22.0508C115.579 22.0368 115.583 22.0213 115.583 22.0043C115.583 21.9856 115.579 21.9696 115.571 21.9563C115.563 21.9431 115.552 21.9329 115.538 21.9258C115.524 21.9184 115.508 21.9148 115.49 21.9148C115.472 21.9148 115.456 21.9184 115.442 21.9258C115.428 21.9331 115.417 21.9439 115.41 21.9581C115.402 21.9723 115.398 21.9896 115.398 22.0099H115.211C115.211 21.9588 115.222 21.9148 115.245 21.8778C115.268 21.8409 115.301 21.8125 115.343 21.7926C115.384 21.7727 115.434 21.7628 115.49 21.7628C115.548 21.7628 115.599 21.7721 115.641 21.7908C115.684 21.8093 115.717 21.8353 115.74 21.869C115.764 21.9026 115.775 21.942 115.775 21.9872C115.775 22.0152 115.77 22.043 115.758 22.0707C115.746 22.0981 115.726 22.1286 115.696 22.1619C115.666 22.1953 115.623 22.2351 115.567 22.2812L115.499 22.3381V22.3423H115.783V22.5H115.225Z" fill="#24232B"/>
<path d="M204.5 22.5C204.5 18.634 207.634 15.5 211.5 15.5C215.366 15.5 218.5 18.634 218.5 22.5C218.5 26.366 215.366 29.5 211.5 29.5C207.634 29.5 204.5 26.366 204.5 22.5Z" fill="#19181E"/>
<path d="M204.5 22.5C204.5 18.634 207.634 15.5 211.5 15.5C215.366 15.5 218.5 18.634 218.5 22.5C218.5 26.366 215.366 29.5 211.5 29.5C207.634 29.5 204.5 26.366 204.5 22.5Z" stroke="#24232B" stroke-width="4" stroke-linejoin="round"/>
<path d="M211.332 22.5099C211.275 22.5099 211.224 22.5001 211.18 22.4805C211.135 22.4606 211.101 22.4332 211.075 22.3984C211.05 22.3636 211.037 22.3236 211.037 22.2784H211.236C211.236 22.2924 211.24 22.3049 211.249 22.3161C211.257 22.3269 211.269 22.3355 211.283 22.3416C211.298 22.3478 211.315 22.3509 211.334 22.3509C211.352 22.3509 211.368 22.3477 211.382 22.3413C211.396 22.3346 211.407 22.3255 211.415 22.3139C211.423 22.3023 211.426 22.2891 211.426 22.2741C211.426 22.2595 211.422 22.2464 211.413 22.2351C211.404 22.2237 211.391 22.2148 211.375 22.2085C211.358 22.2021 211.339 22.1989 211.318 22.1989H211.244V22.0625H211.318C211.338 22.0625 211.355 22.0593 211.37 22.0529C211.385 22.0465 211.397 22.0376 211.405 22.0263C211.414 22.0149 211.418 22.0019 211.418 21.9872C211.418 21.973 211.414 21.9605 211.407 21.9496C211.4 21.9387 211.39 21.9302 211.377 21.924C211.365 21.9179 211.35 21.9148 211.334 21.9148C211.316 21.9148 211.3 21.918 211.286 21.9244C211.272 21.9308 211.261 21.9396 211.252 21.951C211.244 21.9624 211.24 21.9754 211.24 21.9901H211.051C211.051 21.9455 211.064 21.9062 211.088 21.8722C211.112 21.8381 211.145 21.8113 211.188 21.7919C211.23 21.7725 211.279 21.7628 211.334 21.7628C211.388 21.7628 211.435 21.7719 211.476 21.7901C211.518 21.8084 211.55 21.8335 211.573 21.8654C211.597 21.8971 211.608 21.9335 211.608 21.9744C211.608 22.0152 211.594 22.0485 211.566 22.0746C211.538 22.1006 211.502 22.116 211.459 22.1207V22.1264C211.518 22.1328 211.562 22.1508 211.591 22.1804C211.621 22.2098 211.635 22.2467 211.635 22.2912C211.635 22.3338 211.622 22.3716 211.597 22.4045C211.571 22.4374 211.535 22.4632 211.49 22.4819C211.444 22.5006 211.392 22.5099 211.332 22.5099Z" fill="#19181E"/>
<path d="M299.5 22.5C299.5 18.634 302.634 15.5 306.5 15.5C310.366 15.5 313.5 18.634 313.5 22.5C313.5 26.366 310.366 29.5 306.5 29.5C302.634 29.5 299.5 26.366 299.5 22.5Z" fill="#19181E"/>
<path d="M299.5 22.5C299.5 18.634 302.634 15.5 306.5 15.5C310.366 15.5 313.5 18.634 313.5 22.5C313.5 26.366 310.366 29.5 306.5 29.5C302.634 29.5 299.5 26.366 299.5 22.5Z" stroke="#24232B" stroke-width="4" stroke-linejoin="round"/>
<path d="M306.041 22.3864V22.233L306.334 21.7727H306.473V21.9773H306.393L306.236 22.2273V22.233H306.668V22.3864H306.041ZM306.395 22.5V22.3395L306.399 22.2727V21.7727H306.584V22.5H306.395Z" fill="#24232B"/>
</g>
<defs>
<clipPath id="clip0_0_1643">
<rect width="327" height="43" fill="white" transform="translate(0.5 0.5)"/>
</clipPath>
</defs>
</svg>
