<svg width="328" height="43" viewBox="0 0 328 43" fill="none" xmlns="http://www.w3.org/2000/svg">
<g clip-path="url(#clip0_0_1526)">
<path d="M21.5 22.5C21.5 21.6716 22.1716 21 23 21H305C305.828 21 306.5 21.6716 306.5 22.5C306.5 23.3284 305.828 24 305 24H23C22.1716 24 21.5 23.3284 21.5 22.5Z" fill="#24232B"/>
<path d="M21.5 22.5C21.5 21.6716 22.1716 21 23 21H210C210.828 21 211.5 21.6716 211.5 22.5C211.5 23.3284 210.828 24 210 24H23C22.1716 24 21.5 23.3284 21.5 22.5Z" fill="#F96C84"/>
<g clip-path="url(#clip1_0_1526)">
<path d="M11.5 22C11.5 16.4772 15.9772 12 21.5 12C27.0228 12 31.5 16.4772 31.5 22C31.5 27.5228 27.0228 32 21.5 32C15.9772 32 11.5 27.5228 11.5 22Z" fill="#19181E"/>
<path d="M11.5 22C11.5 16.4772 15.9772 12 21.5 12C27.0228 12 31.5 16.4772 31.5 22C31.5 27.5228 27.0228 32 21.5 32C15.9772 32 11.5 27.5228 11.5 22Z" stroke="#F96C84" stroke-width="2" stroke-linejoin="round"/>
<path d="M23.5057 16.3636V28H21.0455V18.6989H20.9773L18.3125 20.3693V18.1875L21.1932 16.3636H23.5057Z" fill="white"/>
</g>
<path d="M105.5 22C105.5 16.4772 109.977 12 115.5 12C121.023 12 125.5 16.4772 125.5 22C125.5 27.5228 121.023 32 115.5 32C109.977 32 105.5 27.5228 105.5 22Z" fill="#19181E"/>
<path d="M105.5 22C105.5 16.4772 109.977 12 115.5 12C121.023 12 125.5 16.4772 125.5 22C125.5 27.5228 121.023 32 115.5 32C109.977 32 105.5 27.5228 105.5 22Z" stroke="#F96C84" stroke-width="2" stroke-linejoin="round"/>
<path d="M111.404 28V26.2273L115.546 22.392C115.898 22.0511 116.194 21.7443 116.433 21.4716C116.675 21.1989 116.859 20.9318 116.984 20.6705C117.109 20.4053 117.171 20.1193 117.171 19.8125C117.171 19.4716 117.094 19.178 116.938 18.9318C116.783 18.6818 116.571 18.4905 116.302 18.358C116.033 18.2216 115.728 18.1534 115.387 18.1534C115.031 18.1534 114.72 18.2254 114.455 18.3693C114.19 18.5133 113.986 18.7197 113.842 18.9886C113.698 19.2576 113.626 19.5777 113.626 19.9489H111.29C111.29 19.1875 111.463 18.5265 111.808 17.9659C112.152 17.4053 112.635 16.9716 113.256 16.6648C113.878 16.358 114.594 16.2045 115.404 16.2045C116.237 16.2045 116.963 16.3523 117.58 16.6477C118.201 16.9394 118.684 17.3447 119.029 17.8636C119.374 18.3826 119.546 18.9773 119.546 19.6477C119.546 20.0871 119.459 20.5208 119.285 20.9489C119.114 21.3769 118.809 21.8523 118.37 22.375C117.931 22.8939 117.311 23.517 116.512 24.2443L114.813 25.9091V25.9886H119.7V28H111.404Z" fill="white"/>
<path d="M201.5 22C201.5 16.4772 205.977 12 211.5 12C217.023 12 221.5 16.4772 221.5 22C221.5 27.5228 217.023 32 211.5 32C205.977 32 201.5 27.5228 201.5 22Z" fill="#19181E"/>
<path d="M201.5 22C201.5 16.4772 205.977 12 211.5 12C217.023 12 221.5 16.4772 221.5 22C221.5 27.5228 217.023 32 211.5 32C205.977 32 201.5 27.5228 201.5 22Z" stroke="#F96C84" stroke-width="2" stroke-linejoin="round"/>
<path d="M211.471 28.1591C210.622 28.1591 209.867 28.0133 209.204 27.7216C208.545 27.4261 208.024 27.0208 207.641 26.5057C207.263 25.9867 207.067 25.3883 207.056 24.7102H209.533C209.549 24.9943 209.641 25.2443 209.812 25.4602C209.986 25.6723 210.217 25.8371 210.505 25.9545C210.793 26.072 211.117 26.1307 211.477 26.1307C211.852 26.1307 212.183 26.0644 212.471 25.9318C212.759 25.7992 212.984 25.6155 213.147 25.3807C213.31 25.1458 213.391 24.875 213.391 24.5682C213.391 24.2576 213.304 23.983 213.13 23.7443C212.96 23.5019 212.713 23.3125 212.391 23.1761C212.073 23.0398 211.694 22.9716 211.255 22.9716H210.17V21.1648H211.255C211.626 21.1648 211.954 21.1004 212.238 20.9716C212.526 20.8428 212.749 20.6648 212.908 20.4375C213.067 20.2064 213.147 19.9375 213.147 19.6307C213.147 19.339 213.077 19.0833 212.937 18.8636C212.8 18.6402 212.607 18.4659 212.357 18.3409C212.111 18.2159 211.823 18.1534 211.494 18.1534C211.16 18.1534 210.855 18.214 210.579 18.3352C210.302 18.4527 210.081 18.6212 209.914 18.8409C209.747 19.0606 209.658 19.3182 209.647 19.6136H207.289C207.3 18.9432 207.492 18.3523 207.863 17.8409C208.234 17.3295 208.734 16.9299 209.363 16.642C209.996 16.3504 210.71 16.2045 211.505 16.2045C212.308 16.2045 213.011 16.3504 213.613 16.642C214.215 16.9337 214.683 17.3277 215.016 17.8239C215.353 18.3163 215.52 18.8693 215.516 19.483C215.52 20.1345 215.317 20.678 214.908 21.1136C214.503 21.5492 213.975 21.8258 213.323 21.9432V22.0341C214.179 22.1439 214.831 22.4413 215.278 22.9261C215.728 23.4072 215.952 24.0095 215.948 24.733C215.952 25.3958 215.761 25.9848 215.374 26.5C214.992 27.0152 214.463 27.4205 213.789 27.7159C213.115 28.0114 212.342 28.1591 211.471 28.1591Z" fill="white"/>
<path d="M299.5 22C299.5 18.134 302.634 15 306.5 15C310.366 15 313.5 18.134 313.5 22C313.5 25.866 310.366 29 306.5 29C302.634 29 299.5 25.866 299.5 22Z" fill="#19181E"/>
<path d="M299.5 22C299.5 18.134 302.634 15 306.5 15C310.366 15 313.5 18.134 313.5 22C313.5 25.866 310.366 29 306.5 29C302.634 29 299.5 25.866 299.5 22Z" stroke="#24232B" stroke-width="4" stroke-linejoin="round"/>
<path d="M306.041 21.8864V21.733L306.334 21.2727H306.473V21.4773H306.393L306.236 21.7273V21.733H306.668V21.8864H306.041ZM306.395 22V21.8395L306.399 21.7727V21.2727H306.584V22H306.395Z" fill="#24232B"/>
</g>
<defs>
<clipPath id="clip0_0_1526">
<rect width="327" height="43" fill="white" transform="translate(0.5)"/>
</clipPath>
<clipPath id="clip1_0_1526">
<rect width="22" height="22" fill="white" transform="translate(10.5 11)"/>
</clipPath>
</defs>
</svg>
