<svg width="328" height="44" viewBox="0 0 328 44" fill="none" xmlns="http://www.w3.org/2000/svg">
<g clip-path="url(#clip0_0_1575)">
<path d="M21.5 23C21.5 22.1716 22.1716 21.5 23 21.5H305C305.828 21.5 306.5 22.1716 306.5 23C306.5 23.8284 305.828 24.5 305 24.5H23C22.1716 24.5 21.5 23.8284 21.5 23Z" fill="#24232B"/>
<path d="M21.5 23C21.5 22.1716 22.1716 21.5 23 21.5H114C114.828 21.5 115.5 22.1716 115.5 23C115.5 23.8284 114.828 24.5 114 24.5H23C22.1716 24.5 21.5 23.8284 21.5 23Z" fill="#F96C84"/>
<g clip-path="url(#clip1_0_1575)">
<path d="M11.5 22.5C11.5 16.9772 15.9772 12.5 21.5 12.5C27.0228 12.5 31.5 16.9772 31.5 22.5C31.5 28.0228 27.0228 32.5 21.5 32.5C15.9772 32.5 11.5 28.0228 11.5 22.5Z" fill="#19181E"/>
<path d="M11.5 22.5C11.5 16.9772 15.9772 12.5 21.5 12.5C27.0228 12.5 31.5 16.9772 31.5 22.5C31.5 28.0228 27.0228 32.5 21.5 32.5C15.9772 32.5 11.5 28.0228 11.5 22.5Z" stroke="#F96C84" stroke-width="2" stroke-linejoin="round"/>
<path d="M23.5057 16.8636V28.5H21.0455V19.1989H20.9773L18.3125 20.8693V18.6875L21.1932 16.8636H23.5057Z" fill="white"/>
</g>
<path d="M105.5 22.5C105.5 16.9772 109.977 12.5 115.5 12.5C121.023 12.5 125.5 16.9772 125.5 22.5C125.5 28.0228 121.023 32.5 115.5 32.5C109.977 32.5 105.5 28.0228 105.5 22.5Z" fill="#19181E"/>
<path d="M105.5 22.5C105.5 16.9772 109.977 12.5 115.5 12.5C121.023 12.5 125.5 16.9772 125.5 22.5C125.5 28.0228 121.023 32.5 115.5 32.5C109.977 32.5 105.5 28.0228 105.5 22.5Z" stroke="#F96C84" stroke-width="2" stroke-linejoin="round"/>
<path d="M111.404 28.5V26.7273L115.546 22.892C115.898 22.5511 116.194 22.2443 116.433 21.9716C116.675 21.6989 116.859 21.4318 116.984 21.1705C117.109 20.9053 117.171 20.6193 117.171 20.3125C117.171 19.9716 117.094 19.678 116.938 19.4318C116.783 19.1818 116.571 18.9905 116.302 18.858C116.033 18.7216 115.728 18.6534 115.387 18.6534C115.031 18.6534 114.72 18.7254 114.455 18.8693C114.19 19.0133 113.986 19.2197 113.842 19.4886C113.698 19.7576 113.626 20.0777 113.626 20.4489H111.29C111.29 19.6875 111.463 19.0265 111.808 18.4659C112.152 17.9053 112.635 17.4716 113.256 17.1648C113.878 16.858 114.594 16.7045 115.404 16.7045C116.237 16.7045 116.963 16.8523 117.58 17.1477C118.201 17.4394 118.684 17.8447 119.029 18.3636C119.374 18.8826 119.546 19.4773 119.546 20.1477C119.546 20.5871 119.459 21.0208 119.285 21.4489C119.114 21.8769 118.809 22.3523 118.37 22.875C117.931 23.3939 117.311 24.017 116.512 24.7443L114.813 26.4091V26.4886H119.7V28.5H111.404Z" fill="white"/>
<path d="M204.5 22.5C204.5 18.634 207.634 15.5 211.5 15.5C215.366 15.5 218.5 18.634 218.5 22.5C218.5 26.366 215.366 29.5 211.5 29.5C207.634 29.5 204.5 26.366 204.5 22.5Z" fill="#19181E"/>
<path d="M204.5 22.5C204.5 18.634 207.634 15.5 211.5 15.5C215.366 15.5 218.5 18.634 218.5 22.5C218.5 26.366 215.366 29.5 211.5 29.5C207.634 29.5 204.5 26.366 204.5 22.5Z" stroke="#24232B" stroke-width="4" stroke-linejoin="round"/>
<path d="M211.332 22.5099C211.275 22.5099 211.224 22.5001 211.18 22.4805C211.135 22.4606 211.101 22.4332 211.075 22.3984C211.05 22.3636 211.037 22.3236 211.037 22.2784H211.236C211.236 22.2924 211.24 22.3049 211.249 22.3161C211.257 22.3269 211.269 22.3355 211.283 22.3416C211.298 22.3478 211.315 22.3509 211.334 22.3509C211.352 22.3509 211.368 22.3477 211.382 22.3413C211.396 22.3346 211.407 22.3255 211.415 22.3139C211.423 22.3023 211.426 22.2891 211.426 22.2741C211.426 22.2595 211.422 22.2464 211.413 22.2351C211.404 22.2237 211.391 22.2148 211.375 22.2085C211.358 22.2021 211.339 22.1989 211.318 22.1989H211.244V22.0625H211.318C211.338 22.0625 211.355 22.0593 211.37 22.0529C211.385 22.0465 211.397 22.0376 211.405 22.0263C211.414 22.0149 211.418 22.0019 211.418 21.9872C211.418 21.973 211.414 21.9605 211.407 21.9496C211.4 21.9387 211.39 21.9302 211.377 21.924C211.365 21.9179 211.35 21.9148 211.334 21.9148C211.316 21.9148 211.3 21.918 211.286 21.9244C211.272 21.9308 211.261 21.9396 211.252 21.951C211.244 21.9624 211.24 21.9754 211.24 21.9901H211.051C211.051 21.9455 211.064 21.9062 211.088 21.8722C211.112 21.8381 211.145 21.8113 211.188 21.7919C211.23 21.7725 211.279 21.7628 211.334 21.7628C211.388 21.7628 211.435 21.7719 211.476 21.7901C211.518 21.8084 211.55 21.8335 211.573 21.8654C211.597 21.8971 211.608 21.9335 211.608 21.9744C211.608 22.0152 211.594 22.0485 211.566 22.0746C211.538 22.1006 211.502 22.116 211.459 22.1207V22.1264C211.518 22.1328 211.562 22.1508 211.591 22.1804C211.621 22.2098 211.635 22.2467 211.635 22.2912C211.635 22.3338 211.622 22.3716 211.597 22.4045C211.571 22.4374 211.535 22.4632 211.49 22.4819C211.444 22.5006 211.392 22.5099 211.332 22.5099Z" fill="#19181E"/>
<path d="M299.5 22.5C299.5 18.634 302.634 15.5 306.5 15.5C310.366 15.5 313.5 18.634 313.5 22.5C313.5 26.366 310.366 29.5 306.5 29.5C302.634 29.5 299.5 26.366 299.5 22.5Z" fill="#19181E"/>
<path d="M299.5 22.5C299.5 18.634 302.634 15.5 306.5 15.5C310.366 15.5 313.5 18.634 313.5 22.5C313.5 26.366 310.366 29.5 306.5 29.5C302.634 29.5 299.5 26.366 299.5 22.5Z" stroke="#24232B" stroke-width="4" stroke-linejoin="round"/>
<path d="M306.041 22.3864V22.233L306.334 21.7727H306.473V21.9773H306.393L306.236 22.2273V22.233H306.668V22.3864H306.041ZM306.395 22.5V22.3395L306.399 22.2727V21.7727H306.584V22.5H306.395Z" fill="#24232B"/>
</g>
<defs>
<clipPath id="clip0_0_1575">
<rect width="327" height="43" fill="white" transform="translate(0.5 0.5)"/>
</clipPath>
<clipPath id="clip1_0_1575">
<rect width="22" height="22" fill="white" transform="translate(10.5 11.5)"/>
</clipPath>
</defs>
</svg>
